<svg width="30" height="30" viewBox="0 0 30 30" fill="none" xmlns="http://www.w3.org/2000/svg">
<path d="M15.0004 3.62024C17.182 3.61737 19.2798 4.46387 20.848 5.98059C22.416 7.4972 23.3317 9.56492 23.4017 11.7452L23.4066 12.0343V16.9962L23.4486 17.0919L25.0863 20.839C25.1516 20.9887 25.1791 21.1528 25.1654 21.3156C25.1517 21.4784 25.0976 21.6358 25.0082 21.7726C24.9187 21.9092 24.7963 22.0211 24.6527 22.0988C24.509 22.1765 24.3483 22.2178 24.1849 22.2179L18.5619 22.2208L18.0619 22.2218L18.0629 22.7218C18.0639 23.519 17.7536 24.2852 17.1986 24.8575C16.6436 25.4299 15.8871 25.7637 15.0902 25.7872C14.2934 25.8107 13.5188 25.5221 12.931 24.9835C12.3449 24.4464 11.9904 23.7027 11.9427 22.9093L11.9369 22.7032L11.9242 22.2179H5.82654C5.66332 22.2179 5.5024 22.1773 5.35876 22.0997C5.21515 22.0222 5.09287 21.91 5.0033 21.7736C4.91374 21.6371 4.86009 21.4801 4.84607 21.3175C4.83558 21.1955 4.84793 21.073 4.8822 20.9562L4.92322 20.8419L6.55212 17.0919L6.59412 16.9972V12.0265C6.59412 7.51444 10.119 3.85528 14.5668 3.63098L15.0004 3.62024ZM16.7806 22.2189L13.2181 22.2208L12.7191 22.2218V22.7208C12.719 23.3068 12.9439 23.8708 13.348 24.295C13.7522 24.7193 14.3047 24.9718 14.89 25.0001C15.475 25.0284 16.0484 24.8303 16.4916 24.4474C16.9349 24.0642 17.2143 23.5248 17.2709 22.9415L17.2719 22.9298L17.2728 22.9171L17.2806 22.7423L17.306 22.2189H16.7806ZM22.6254 12.0353L22.6215 11.7677V11.7579L22.6 11.3888C22.4484 9.54998 21.6328 7.82338 20.2992 6.53625C18.877 5.16381 16.9767 4.39837 15.0004 4.40149H14.9994C10.7814 4.40184 7.37537 7.80062 7.37537 12.0265V17.1583L5.82068 20.7384L5.51697 21.4376H24.4965L24.1898 20.7374L22.6254 17.1603V12.0353Z" fill="black" stroke="black"/>
</svg>
