<svg width="20" height="20" viewBox="0 0 20 20" fill="none" xmlns="http://www.w3.org/2000/svg">
<path d="M18.6778 9.73891C16.8056 6.27779 13.5222 4.18335 9.8889 4.18335C6.25557 4.18335 2.96668 6.27779 1.11112 9.73891L0.955566 10L1.10001 10.2667C2.97223 13.7278 6.25557 15.8222 9.8889 15.8222C13.5222 15.8222 16.8111 13.7556 18.6778 10.2667L18.8222 10L18.6778 9.73891ZM9.8889 14.6833C6.76112 14.6833 3.8889 12.9389 2.22223 10C3.8889 7.06113 6.76112 5.31668 9.8889 5.31668C13.0167 5.31668 15.8556 7.06668 17.55 10C15.8556 12.9389 13.0111 14.6833 9.8889 14.6833Z" fill="black"/>
<path d="M10.05 6.20555C9.29672 6.21104 8.56198 6.43965 7.93856 6.86248C7.31514 7.28531 6.83101 7.88341 6.54731 8.58124C6.26361 9.27906 6.19307 10.0453 6.3446 10.7832C6.49613 11.5211 6.86293 12.1975 7.39868 12.7271C7.93443 13.2566 8.61509 13.6155 9.35469 13.7584C10.0943 13.9014 10.8597 13.8219 11.5541 13.5301C12.2486 13.2383 12.841 12.7472 13.2566 12.1189C13.6721 11.4906 13.8922 10.7533 13.8889 9.99999C13.8867 9.49857 13.7856 9.0025 13.5914 8.54022C13.3971 8.07794 13.1136 7.65854 12.7569 7.30605C12.4003 6.95356 11.9776 6.6749 11.5131 6.48606C11.0486 6.29721 10.5514 6.20189 10.05 6.20555ZM10.05 12.7167C9.51791 12.7112 8.99931 12.5486 8.55933 12.2493C8.11935 11.9501 7.77761 11.5275 7.57702 11.0346C7.37643 10.5418 7.32594 10.0006 7.43189 9.47918C7.53784 8.95773 7.79551 8.47921 8.17253 8.10372C8.54956 7.72823 9.02913 7.47252 9.55101 7.36869C10.0729 7.26487 10.6138 7.31757 11.1058 7.52017C11.5979 7.72277 12.0191 8.06624 12.3165 8.50744C12.614 8.94864 12.7745 9.46789 12.7778 9.99999C12.7793 10.3581 12.7096 10.7129 12.5729 11.0439C12.4362 11.3749 12.2352 11.6755 11.9814 11.9282C11.7277 12.1809 11.4263 12.3807 11.0948 12.5161C10.7632 12.6514 10.4081 12.7196 10.05 12.7167Z" fill="black"/>
</svg>
