<svg width="29" height="29" viewBox="0 0 29 29" fill="none" xmlns="http://www.w3.org/2000/svg">
<path fill-rule="evenodd" clip-rule="evenodd" d="M10.6281 9.79688H17.8719C18.6604 9.79688 19.3408 9.79688 19.8859 9.8705C20.4701 9.94888 21.0294 10.1258 21.4831 10.5794C21.9367 11.0331 22.1136 11.5936 22.192 12.1766C22.2656 12.7217 22.2656 13.4021 22.2656 14.1918V19.0582C22.2656 19.8479 22.2656 20.5283 22.192 21.0734C22.1136 21.6576 21.9367 22.2169 21.4831 22.6706C21.0294 23.1242 20.4689 23.3011 19.8859 23.3795C19.3408 23.4531 18.6604 23.4531 17.8719 23.4531H10.6281C9.83962 23.4531 9.15919 23.4531 8.61413 23.3795C8.03106 23.3011 7.47056 23.1242 7.01694 22.6706C6.56331 22.2169 6.38637 21.6564 6.308 21.0734C6.23437 20.5283 6.23438 19.8479 6.23438 19.0582V14.1918C6.23438 13.4021 6.23437 12.7217 6.308 12.1766C6.38637 11.5936 6.56331 11.0331 7.01694 10.5794C7.47056 10.1258 8.03106 9.94888 8.61413 9.8705C9.15919 9.79688 9.83963 9.79688 10.6293 9.79688M8.85281 11.6351C8.46687 11.6874 8.34575 11.7717 8.27806 11.8394C8.21038 11.9071 8.12606 12.0282 8.07381 12.4141C8.01919 12.8262 8.01681 13.3855 8.01681 14.25V19C8.01681 19.8645 8.01919 20.425 8.07381 20.8359C8.12606 21.2218 8.21038 21.3429 8.27806 21.4106C8.34575 21.4783 8.46687 21.5626 8.85281 21.6149C9.26487 21.6695 9.82419 21.6719 10.6887 21.6719H17.8137C18.6782 21.6719 19.2387 21.6695 19.6496 21.6149C20.0355 21.5626 20.1566 21.4783 20.2243 21.4106C20.292 21.3429 20.3763 21.2218 20.4286 20.8359C20.4832 20.4238 20.4856 19.8645 20.4856 19V14.25C20.4856 13.3855 20.4832 12.825 20.4286 12.4141C20.3763 12.0282 20.292 11.9071 20.2243 11.8394C20.1566 11.7717 20.0355 11.6874 19.6496 11.6351C19.2375 11.5805 18.6782 11.5781 17.8137 11.5781H10.6875C9.823 11.5781 9.26369 11.5805 8.85281 11.6351Z" fill="black"/>
<path d="M8.3125 6.23438C8.07629 6.23438 7.84976 6.32821 7.68273 6.49523C7.51571 6.66226 7.42188 6.88879 7.42188 7.125C7.42188 7.36121 7.51571 7.58774 7.68273 7.75477C7.84976 7.92179 8.07629 8.01562 8.3125 8.01562H14.25C14.4862 8.01562 14.7127 7.92179 14.8798 7.75477C15.0468 7.58774 15.1406 7.36121 15.1406 7.125C15.1406 6.88879 15.0468 6.66226 14.8798 6.49523C14.7127 6.32821 14.4862 6.23438 14.25 6.23438H8.3125Z" fill="black"/>
<path fill-rule="evenodd" clip-rule="evenodd" d="M12.996 1.48438H15.504C17.6866 1.48438 19.4156 1.48438 20.7682 1.66606C22.1599 1.85369 23.2869 2.24794 24.1763 3.13619C25.0646 4.02562 25.4588 5.15256 25.6464 6.54431C25.8281 7.89806 25.8281 9.62588 25.8281 11.8085V16.6915C25.8281 18.8741 25.8281 20.6031 25.6464 21.9557C25.4588 23.3474 25.0646 24.4744 24.1763 25.3638C23.2869 26.2521 22.1599 26.6463 20.7682 26.8339C19.4144 27.0156 17.6866 27.0156 15.504 27.0156H12.996C10.8134 27.0156 9.08438 27.0156 7.73181 26.8339C6.34006 26.6463 5.21312 26.2521 4.32369 25.3638C3.43544 24.4744 3.04119 23.3474 2.85356 21.9557C2.67188 20.6019 2.67188 18.8741 2.67188 16.6915V11.8085C2.67188 9.62588 2.67188 7.89688 2.85356 6.54431C3.04119 5.15256 3.43544 4.02562 4.32369 3.13619C5.21312 2.24794 6.34006 1.85369 7.73181 1.66606C9.08556 1.48438 10.8134 1.48438 12.996 1.48438ZM7.96812 3.43188C6.7735 3.59219 6.08475 3.89381 5.58125 4.39612C5.08012 4.89844 4.7785 5.58719 4.61819 6.78181C4.45431 8.00256 4.45194 9.61044 4.45194 11.875V16.625C4.45194 18.8896 4.45431 20.4986 4.61819 21.7194C4.7785 22.9128 5.08013 23.6016 5.58244 24.1039C6.08475 24.6062 6.7735 24.9078 7.96812 25.0681C9.18888 25.232 10.7967 25.2344 13.0613 25.2344H15.4363C17.7009 25.2344 19.3099 25.232 20.5307 25.0681C21.7241 24.9078 22.4129 24.6062 22.9152 24.1039C23.4175 23.6016 23.7191 22.9128 23.8794 21.7182C24.0433 20.4986 24.0457 18.8896 24.0457 16.625V11.875C24.0457 9.61044 24.0433 8.00256 23.8794 6.78062C23.7191 5.58719 23.4175 4.89844 22.9152 4.39612C22.4129 3.89381 21.7241 3.59219 20.5295 3.43188C19.3099 3.268 17.7009 3.26562 15.4363 3.26562H13.0613C10.7967 3.26562 9.19006 3.268 7.96812 3.43188Z" fill="black"/>
</svg>
