<svg width="20" height="20" viewBox="0 0 20 20" fill="none" xmlns="http://www.w3.org/2000/svg">
<path fill-rule="evenodd" clip-rule="evenodd" d="M16.0708 10.5375C16.6601 9.939 16.9874 9.13094 16.9808 8.29109C16.9743 7.45124 16.6343 6.6484 16.0358 6.05918C15.7395 5.76742 15.3886 5.5369 15.0031 5.38076C14.6177 5.22462 14.2053 5.14593 13.7894 5.14918C12.9496 5.15575 12.1467 5.49567 11.5575 6.09418C11.3975 6.25418 11.1942 6.45056 10.9475 6.68334L10.2617 7.32918L9.57584 6.68334C9.32862 6.45001 9.12501 6.25362 8.96501 6.09418C8.37114 5.50031 7.56569 5.16668 6.72584 5.16668C5.88599 5.16668 5.08054 5.50031 4.48667 6.09418C3.26334 7.31834 3.24917 9.29751 4.44167 10.5275L10.2617 16.3475L16.0708 10.5375ZM3.77917 5.38751C4.1661 5.00048 4.62548 4.69347 5.13107 4.48401C5.63667 4.27454 6.17857 4.16673 6.72584 4.16673C7.27311 4.16673 7.81501 4.27454 8.32061 4.48401C8.8262 4.69347 9.28558 5.00048 9.67251 5.38751C9.82417 5.53973 10.0206 5.72917 10.2617 5.95584C10.5017 5.72917 10.6981 5.53945 10.8508 5.38668C11.6263 4.59931 12.6827 4.15224 13.7878 4.1438C14.8928 4.13536 15.956 4.56625 16.7433 5.34168C17.5307 6.1171 17.9778 7.17355 17.9862 8.27861C17.9947 9.38366 17.5638 10.4468 16.7883 11.2342L10.8508 17.1725C10.6946 17.3287 10.4826 17.4165 10.2617 17.4165C10.0407 17.4165 9.82878 17.3287 9.67251 17.1725L3.73334 11.2333C2.97171 10.4478 2.5496 9.39429 2.55817 8.3002C2.56675 7.20612 3.00532 6.15931 3.77917 5.38584V5.38751Z" fill="black"/>
</svg>
