<svg width="30" height="30" viewBox="0 0 30 30" fill="none" xmlns="http://www.w3.org/2000/svg">
<path d="M15 22.125L9.57611 14.4656C8.68832 13.4174 8.1166 12.1386 7.92753 10.778C7.73846 9.41741 7.93982 8.03112 8.50817 6.78056C9.07652 5.53 9.98846 4.46665 11.1378 3.71435C12.2871 2.96204 13.6265 2.55175 15 2.53125C16.9039 2.55006 18.7228 3.32265 20.0583 4.67981C21.3937 6.03696 22.1369 7.86805 22.125 9.77203C22.1257 11.433 21.5603 13.0446 20.5219 14.3409L15 22.125ZM15 4.3125C13.5678 4.32895 12.2006 4.91312 11.1987 5.93674C10.1968 6.96036 9.64202 8.33975 9.65627 9.77203C9.66301 11.0792 10.1332 12.3415 10.9833 13.3345L15 19.0256L19.1236 13.2188C19.9074 12.2404 20.3374 11.0257 20.3438 9.77203C20.358 8.33975 19.8033 6.96036 18.8014 5.93674C17.7995 4.91312 16.4323 4.32895 15 4.3125Z" fill="black"/>
<path d="M15 10.5469C15.9838 10.5469 16.7812 9.74938 16.7812 8.76562C16.7812 7.78187 15.9838 6.98438 15 6.98438C14.0162 6.98438 13.2188 7.78187 13.2188 8.76562C13.2188 9.74938 14.0162 10.5469 15 10.5469Z" fill="black"/>
<path d="M25.6875 11.4375H23.9062V13.2188H25.6875V25.6875H4.3125V13.2188H6.09375V11.4375H4.3125C3.84008 11.4375 3.38702 11.6252 3.05297 11.9592C2.71892 12.2933 2.53125 12.7463 2.53125 13.2188V25.6875C2.53125 26.1599 2.71892 26.613 3.05297 26.947C3.38702 27.2811 3.84008 27.4688 4.3125 27.4688H25.6875C26.1599 27.4688 26.613 27.2811 26.947 26.947C27.2811 26.613 27.4688 26.1599 27.4688 25.6875V13.2188C27.4688 12.7463 27.2811 12.2933 26.947 11.9592C26.613 11.6252 26.1599 11.4375 25.6875 11.4375Z" fill="black"/>
</svg>
