<svg width="30" height="30" viewBox="0 0 30 30" fill="none" xmlns="http://www.w3.org/2000/svg">
<path d="M4.3125 4.3125V3.42188C4.07629 3.42188 3.84976 3.51571 3.68273 3.68273C3.51571 3.84976 3.42188 4.07629 3.42188 4.3125H4.3125ZM22.4729 17.7229L21.6619 17.3548C21.5871 17.5198 21.5645 17.7037 21.5969 17.8819C21.6294 18.0602 21.7154 18.2243 21.8436 18.3523L22.4729 17.7229ZM25.6875 20.9375L26.3169 21.5669C26.4837 21.3999 26.5773 21.1735 26.5773 20.9375C26.5773 20.7015 26.4837 20.4751 26.3169 20.3081L25.6875 20.9375ZM20.9375 25.6875L20.3081 26.3169C20.4751 26.4837 20.7015 26.5773 20.9375 26.5773C21.1735 26.5773 21.3999 26.4837 21.5669 26.3169L20.9375 25.6875ZM17.7229 22.4729L18.3523 21.8436C18.2243 21.7154 18.0602 21.6294 17.8819 21.5969C17.7037 21.5645 17.5198 21.5871 17.3548 21.6619L17.7229 22.4729ZM13.8125 3.42188H4.3125V5.20313H13.8125V3.42188ZM24.2031 13.8125C24.2031 11.0567 23.1084 8.41384 21.1598 6.46522C19.2112 4.5166 16.5683 3.42188 13.8125 3.42188V5.20313C16.0958 5.20313 18.2857 6.11018 19.9002 7.72475C21.5148 9.33932 22.4219 11.5292 22.4219 13.8125H24.2031ZM23.284 18.0899C23.8754 16.7836 24.2031 15.3349 24.2031 13.8125H22.4219C22.4247 15.0344 22.1655 16.2427 21.6619 17.356L23.284 18.0899ZM21.8436 18.3523L25.0581 21.5669L26.3169 20.3081L23.1023 17.0936L21.8436 18.3523ZM25.0581 20.3081L20.3081 25.0581L21.5669 26.3169L26.3169 21.5669L25.0581 20.3081ZM21.5669 25.0581L18.3523 21.8436L17.0936 23.1023L20.3081 26.3169L21.5669 25.0581ZM13.8125 24.2031C15.2876 24.2056 16.746 23.8922 18.0899 23.284L17.356 21.6619C16.2427 22.1655 15.0344 22.4247 13.8125 22.4219V24.2031ZM3.42188 13.8125C3.42188 16.5683 4.5166 19.2112 6.46522 21.1598C8.41384 23.1084 11.0567 24.2031 13.8125 24.2031V22.4219C11.5292 22.4219 9.33932 21.5148 7.72475 19.9002C6.11018 18.2857 5.20313 16.0958 5.20313 13.8125H3.42188ZM3.42188 4.3125V13.8125H5.20313V4.3125H3.42188Z" fill="black"/>
<path d="M13.8125 12.625C13.1567 12.625 12.625 13.1567 12.625 13.8125C12.625 14.4683 13.1567 15 13.8125 15C14.4683 15 15 14.4683 15 13.8125C15 13.1567 14.4683 12.625 13.8125 12.625Z" stroke="black" stroke-width="2.375"/>
<path d="M4.3125 4.3125L12.625 12.625" stroke="black" stroke-width="2.375" stroke-linecap="round" stroke-linejoin="round"/>
</svg>
