<svg width="30" height="30" viewBox="0 0 30 30" fill="none" xmlns="http://www.w3.org/2000/svg">
<path d="M23.9062 25.0938C23.3422 14.0108 6.65781 14.0108 6.09375 25.0938M18.5625 9.65625C18.5625 10.6011 18.1872 11.5072 17.5191 12.1753C16.851 12.8434 15.9448 13.2188 15 13.2188C14.0552 13.2188 13.149 12.8434 12.4809 12.1753C11.8128 11.5072 11.4375 10.6011 11.4375 9.65625C11.4375 8.71142 11.8128 7.80528 12.4809 7.13718C13.149 6.46908 14.0552 6.09375 15 6.09375C15.9448 6.09375 16.851 6.46908 17.5191 7.13718C18.1872 7.80528 18.5625 8.71142 18.5625 9.65625Z" stroke="black" stroke-width="2.375" stroke-linecap="round" stroke-linejoin="round"/>
</svg>
