<svg width="100" height="100" viewBox="0 0 100 100" fill="none" xmlns="http://www.w3.org/2000/svg">
<path fill-rule="evenodd" clip-rule="evenodd" d="M46.1834 13.5168C48.3498 12.8216 50.665 12.7308 52.8792 13.2543L53.8167 13.5168L81.0417 22.2502C81.8334 22.5127 82.5459 23.0043 83.0667 23.6918L83.3584 24.1293L94.8167 43.9085C95.1065 44.4081 95.2893 44.9625 95.3535 45.5366C95.4176 46.1106 95.3617 46.6917 95.1893 47.243C95.0169 47.7942 94.7318 48.3036 94.3521 48.7388C93.9723 49.174 93.5062 49.5255 92.9834 49.771L92.4834 49.9668L83.9375 52.7085V70.7502C83.9369 72.3996 83.4468 74.0118 82.5293 75.3826C81.6117 76.7533 80.3081 77.8209 78.7834 78.4502L78.15 78.6835L53.8167 86.4835C51.6502 87.1788 49.3351 87.2695 47.1209 86.746L46.1834 86.4877L21.85 78.6835C20.279 78.179 18.8932 77.2195 17.8681 75.9266C16.8429 74.6337 16.2247 73.0656 16.0917 71.421L16.0625 70.746V52.7085L7.51669 49.9668C6.96711 49.7905 6.46016 49.5018 6.02799 49.1192C5.59582 48.7366 5.24786 48.2684 5.00615 47.7443C4.76445 47.2201 4.63428 46.6515 4.6239 46.0744C4.61352 45.4973 4.72316 44.9243 4.94586 44.3918L5.18336 43.9085L16.6417 24.1293C17.0712 23.3883 17.7186 22.7976 18.4959 22.4377L18.9542 22.2502L46.1834 13.5168ZM54.1667 51.271V77.621L75.6042 70.746V55.3835L62.7292 59.5127C61.9035 59.7775 61.0158 59.7781 60.1897 59.5145C59.3637 59.2508 58.6404 58.736 58.1209 58.0418L57.8542 57.6335L54.1667 51.271ZM45.8334 51.271L42.1459 57.6335C41.6694 58.4557 40.9262 59.0903 40.0395 59.4321C39.1528 59.7739 38.1759 59.8023 37.2709 59.5127L24.3959 55.3835V70.746L45.8334 77.6252V51.271ZM22.1667 31.2085L14.9875 43.6127L36.6167 50.5543L43.8042 38.1502L22.1667 31.2085ZM77.8334 31.2085L56.1959 38.1502L63.3792 50.5543L85.0125 43.6127L77.8334 31.2085ZM51.2709 21.4502C50.6113 21.2395 49.9096 21.1965 49.2292 21.3252L48.7292 21.4502L33.875 26.2168L50 31.3877L66.125 26.2168L51.2709 21.4502Z" fill="black"/>
</svg>
